<svg xmlns="http://www.w3.org/2000/svg" xmlns:xlink="http://www.w3.org/1999/xlink" viewBox="0 0 48 48" version="1.1" width="100" height="100" style="fill: rgb(0, 0, 0);">
<g id="surface1">
<path style=" fill:#546E7A;" d="M 11 36 C 11 37.101563 10.101563 38 9 38 L 7 38 C 5.898438 38 5 37.101563 5 36 L 5 35 C 5 33.898438 5.898438 33 7 33 L 9 33 C 10.101563 33 11 33.898438 11 35 Z M 43 35 C 43 33.898438 42.101563 33 41 33 L 39 33 C 37.898438 33 37 33.898438 37 35 L 37 36 C 37 37.101563 37.898438 38 39 38 L 41 38 C 42.101563 38 43 37.101563 43 36 Z "/>
<path style=" fill:#CFD8DC;" d="M 2 10 L 46 10 L 46 36 L 2 36 Z "/>
<path style=" fill:#37474F;" d="M 35 32 L 7 32 C 6.398438 32 6 31.5 6 31 L 6 16 L 36 16 L 36 31 C 36 31.5 35.5 32 35 32 Z "/>
<path style=" fill:#FF1744;" d="M 42 31 C 42 31.550781 41.550781 32 41 32 C 40.449219 32 40 31.550781 40 31 C 40 30.449219 40.449219 30 41 30 C 41.550781 30 42 30.449219 42 31 Z "/>
<path style=" fill:#607D8B;" d="M 41 22 C 42.699219 22 44 23.300781 44 25 C 44 26.699219 42.699219 28 41 28 C 39.300781 28 38 26.699219 38 25 C 38 23.300781 39.300781 22 41 22 Z M 38 17 C 38 18.699219 39.300781 20 41 20 C 42.699219 20 44 18.699219 44 17 C 44 15.300781 42.699219 14 41 14 C 39.300781 14 38 15.300781 38 17 Z "/>
<path style="fill:none;stroke-width:2;stroke-linecap:butt;stroke-linejoin:miter;stroke:#FF6E40;stroke-opacity:1;stroke-miterlimit:10;" d="M 36 23 L 34 23 C 33.5 23 33 23.5 33 24 C 33 24.5 32.5 25 32 25 L 10 25 C 9.5 25 9 24.5 9 24 C 9 23.5 8.601563 23 8 23 L 6 23 M 15 22 L 15 25 L 19 25 L 19 22 M 23 25 L 23 22 M 27 25 L 27 22 "/>
<path style=" fill:#90A4AE;" d="M 6 14 L 36 14 L 36 17 L 6 17 Z "/>
</g>
</svg>