<svg xmlns="http://www.w3.org/2000/svg" xmlns:xlink="http://www.w3.org/1999/xlink" viewBox="0 0 48 48" version="1.1" width="100" height="100" style="fill: rgb(0, 0, 0);">
<g id="surface1">
<path style=" fill:#90A4AE;" d="M 34 23 L 36 23 L 36 45 L 34 45 Z "/>
<path style=" fill:#90A4AE;" d="M 29 43 L 31.003906 33.871094 C 31.070313 32.828125 31.941406 32 33 32 L 37 32 C 38.0625 32 38.929688 32.828125 38.996094 33.871094 L 40.976563 42.78125 L 41 43 C 41 44.105469 40.105469 45 39 45 L 31 45 C 29.894531 45 29 44.105469 29 43 Z M 37.023438 34.21875 L 37 34 L 33 34 L 31.023438 43 L 38.976563 43 Z "/>
<path style=" fill:#90A4AE;" d="M 38 15 L 41.949219 15 C 41.976563 15.328125 42 15.660156 42 16 C 42 16 42 16.371094 41.984375 17 L 38 17 Z M 41.90625 19 L 38 19 L 38 21 L 41.78125 21 C 41.835938 20.28125 41.878906 19.609375 41.90625 19 Z "/>
<path style=" fill:#CFD8DC;" d="M 6 16 C 6 16 6 23 11.917969 23 L 26 23 C 27.105469 23 29 25 29 27 L 41 27 C 41.472656 24.640625 41.71875 22.066406 41.851563 19.996094 C 41.828125 20.320313 41.808594 20.65625 41.78125 21 L 38 21 L 38 19 L 41.90625 19 C 41.894531 19.292969 41.875 19.605469 41.855469 19.925781 C 42 17.644531 42 16 42 16 C 42 16 42 16.371094 41.984375 17 L 38 17 L 38 15 L 41.933594 15 C 41.871094 14.316406 41.773438 13.644531 41.605469 13 L 6.175781 13 C 6.058594 13.941406 6 14.9375 6 16 Z "/>
<path style=" fill:#FF1744;" d="M 30 3 L 35 3 L 35 6 L 30 6 Z "/>
<path style=" fill:#455A64;" d="M 41.597656 23 L 26 23 C 27.105469 23 29 25 29 27 L 41 27 C 41.261719 25.691406 41.453125 24.316406 41.597656 23 Z "/>
<path style=" fill:#455A64;" d="M 6.078125 13 L 14 13 L 14 12.949219 C 12.859375 12.71875 12 11.710938 12 10.5 C 12 9.117188 13.117188 8 14.5 8 L 29 8 C 30.382813 8 31.5 9.117188 31.5 10.5 C 31.5 11.882813 30.382813 13 29 13 L 41.605469 13 C 40.273438 7.828125 35.589844 4 30 4 L 15 4 C 9 4 6.488281 7.6875 6.078125 13 Z "/>
</g>
</svg>