<svg xmlns="http://www.w3.org/2000/svg" xmlns:xlink="http://www.w3.org/1999/xlink" viewBox="0 0 48 48" version="1.1" width="100" height="100" style="fill: rgb(0, 0, 0);">
<g id="surface1">
<path style=" fill:#FFA000;" d="M 31 14 C 30 13.398438 27.300781 12 20 12 L 20 26 L 31 26 L 31 18 C 32.101563 18 33 17.398438 33 16.300781 C 33 15.199219 32 14.601563 31 14 Z "/>
<path style=" fill:#546E7A;" d="M 37 35 L 5 35 C 4.5 35 4 35.5 4 36 L 4 42 C 4 42.5 4.5 43 5 43 L 7 43 L 7 44 C 7 44.5 7.5 45 8 45 L 10 45 C 10.5 45 11 44.5 11 44 L 11 43 L 31 43 L 31 44 C 31 44.5 31.5 45 32 45 L 34 45 C 34.5 45 35 44.5 35 44 L 35 43 L 37 43 C 37.5 43 38 42.5 38 42 L 38 36 C 38 35.5 37.5 35 37 35 Z "/>
<path style=" fill:#FFC107;" d="M 27 14 C 26 13.398438 23 12 19 12 C 15 12 12 13.398438 11 14 C 10 14.601563 9 15.199219 9 16.300781 C 9 17.398438 9.898438 18 11 18 L 11 26 L 27 26 L 27 18 C 28.101563 18 29 17.398438 29 16.300781 C 29 15.199219 28 14.601563 27 14 Z "/>
<path style="fill:none;stroke-width:2;stroke-linecap:butt;stroke-linejoin:miter;stroke:#9FA8DA;stroke-opacity:1;stroke-miterlimit:10;" d="M 37 27 L 40 27 "/>
<path style=" fill:#CFD8DC;" d="M 4 39 L 4 30 C 4 25 8.101563 21 13 21 L 29 21 C 34 21 38 25 38 30 L 38 39 Z "/>
<path style=" fill:#B0BEC5;" d="M 44 29 L 39 29 L 39 25 L 42 25 C 43.101563 25 44 25.898438 44 27 Z "/>
<path style=" fill:#FF1744;" d="M 35 35.5 C 35 36.328125 34.328125 37 33.5 37 C 32.671875 37 32 36.328125 32 35.5 C 32 34.671875 32.671875 34 33.5 34 C 34.328125 34 35 34.671875 35 35.5 Z "/>
<path style=" fill:#BCAAA4;" d="M 16.699219 11 L 15.398438 9.5 C 16.199219 8.800781 16.199219 8.699219 15.699219 8 C 15.199219 7.300781 14.199219 5.800781 16.398438 4 L 17.699219 5.5 C 16.898438 6.101563 17 6.199219 17.398438 6.800781 C 17.800781 7.601563 18.800781 9.101563 16.699219 11 Z M 21.300781 6.898438 C 20.800781 6.199219 20.800781 6.199219 21.601563 5.601563 L 20.300781 4 C 18.101563 5.800781 19.199219 7.300781 19.601563 8 C 20.101563 8.699219 20.101563 8.800781 19.300781 9.5 L 20.601563 11 C 22.800781 9.101563 21.800781 7.601563 21.300781 6.898438 Z M 25.300781 6.898438 C 24.800781 6.199219 24.800781 6.199219 25.601563 5.601563 L 24.300781 4 C 22.101563 5.800781 23.199219 7.300781 23.601563 8 C 24.101563 8.699219 24.101563 8.800781 23.300781 9.5 L 24.601563 11 C 26.800781 9.101563 25.800781 7.601563 25.300781 6.898438 Z "/>
</g>
</svg>