<svg xmlns="http://www.w3.org/2000/svg" xmlns:xlink="http://www.w3.org/1999/xlink" viewBox="0 0 48 48" version="1.1" width="100" height="100" style="fill: rgb(0, 0, 0);">
<g id="surface1">
<path style=" fill:#546E7A;" d="M 12 34 C 12 32.894531 11.105469 32 10 32 L 8 32 C 6.894531 32 6 32.894531 6 34 L 6 35 C 6 36.105469 6.894531 37 8 37 L 10 37 C 11.105469 37 12 36.105469 12 35 Z "/>
<path style=" fill:#546E7A;" d="M 42 34 C 42 32.894531 41.105469 32 40 32 L 38 32 C 36.894531 32 36 32.894531 36 34 L 36 35 C 36 36.105469 36.894531 37 38 37 L 40 37 C 41.105469 37 42 36.105469 42 35 Z "/>
<path style=" fill:#CFD8DC;" d="M 3 10 L 45 10 L 45 35 L 3 35 Z "/>
<path style=" fill:#37474F;" d="M 9 14 L 45 14 L 45 31 L 9 31 C 7.894531 31 7 30.105469 7 29 L 7 16 C 7 14.894531 7.894531 14 9 14 Z "/>
<path style=" fill:#90A4AE;" d="M 35 35 L 33 35 C 33 35 30 28 30 22 C 30 16 33 10 33 10 L 35 10 Z "/>
<path style=" fill:#CDDC39;" d="M 37 16 L 43 16 L 43 19 L 37 19 Z "/>
</g>
</svg>