<svg xmlns="http://www.w3.org/2000/svg" xmlns:xlink="http://www.w3.org/1999/xlink" viewBox="0 0 48 48" version="1.1" width="100" height="100" style="fill: rgb(0, 0, 0);">
<g id="surface1">
<path style=" fill:#FFECB3;" d="M 16 11 L 29 11 L 29 16 L 16 16 Z "/>
<path style="fill:none;stroke-width:2;stroke-linecap:butt;stroke-linejoin:round;stroke:#64B5F6;stroke-opacity:1;stroke-miterlimit:10;" d="M 23 41 L 32 3 L 41 3 "/>
<path style=" fill:#FFECB3;" d="M 32 12 C 32 14.210938 30.210938 16 28 16 C 25.789063 16 24 14.210938 24 12 C 24 9.789063 25.789063 8 28 8 C 30.210938 8 32 9.789063 32 12 Z "/>
<path style=" fill:#FFECB3;" d="M 22 12 C 22 14.210938 20.210938 16 18 16 C 15.789063 16 14 14.210938 14 12 C 14 9.789063 15.789063 8 18 8 C 20.210938 8 22 9.789063 22 12 Z "/>
<path style=" fill:#FFECB3;" d="M 25 7.5 C 25 9.433594 23.433594 11 21.5 11 C 19.566406 11 18 9.433594 18 7.5 C 18 5.566406 19.566406 4 21.5 4 C 23.433594 4 25 5.566406 25 7.5 Z "/>
<path style=" fill:#FFECB3;" d="M 25 4 C 25 5.105469 24.105469 6 23 6 C 21.894531 6 21 5.105469 21 4 C 21 2.894531 21.894531 2 23 2 C 24.105469 2 25 2.894531 25 4 Z "/>
<path style=" fill:#FFECB3;" d="M 28 7.5 C 28 9.433594 26.433594 11 24.5 11 C 22.566406 11 21 9.433594 21 7.5 C 21 5.566406 22.566406 4 24.5 4 C 26.433594 4 28 5.566406 28 7.5 Z "/>
<path style=" fill:#FFD54F;" d="M 18 8 C 18 8 18.121094 7.902344 18.335938 7.769531 C 18.453125 7.714844 18.550781 7.59375 18.652344 7.507813 C 18.75 7.425781 18.863281 7.28125 18.984375 7.167969 C 19.105469 7.050781 19.21875 6.882813 19.351563 6.746094 C 19.480469 6.589844 19.617188 6.425781 19.757813 6.257813 C 20.046875 5.921875 20.378906 5.539063 20.761719 5.175781 C 20.957031 4.996094 21.15625 4.816406 21.378906 4.652344 C 21.585938 4.480469 21.835938 4.335938 22.066406 4.199219 C 22.316406 4.070313 22.546875 3.949219 22.804688 3.875 C 23.046875 3.785156 23.296875 3.738281 23.53125 3.71875 C 23.753906 3.675781 23.972656 3.703125 24.160156 3.722656 C 24.339844 3.730469 24.5 3.78125 24.625 3.832031 C 24.875 3.925781 25 4 25 4 C 25 4 24.867188 4.097656 24.667969 4.226563 C 24.464844 4.347656 24.214844 4.558594 23.949219 4.789063 C 23.433594 5.265625 22.867188 5.921875 22.132813 6.632813 C 21.761719 6.976563 21.355469 7.320313 20.898438 7.605469 C 20.457031 7.894531 19.960938 8.113281 19.496094 8.191406 C 19.058594 8.289063 18.585938 8.253906 18.375 8.164063 C 18.136719 8.070313 18 8 18 8 Z "/>
<path style=" fill:#FFD54F;" d="M 14.117188 17 C 14.117188 17 14.371094 16.886719 14.816406 16.722656 C 15.054688 16.667969 15.269531 16.476563 15.535156 16.347656 C 15.789063 16.226563 16.066406 15.980469 16.371094 15.78125 C 16.679688 15.585938 16.976563 15.269531 17.316406 15.023438 C 17.636719 14.730469 17.976563 14.425781 18.328125 14.105469 C 19.023438 13.4375 19.769531 12.722656 20.515625 12.007813 C 21.277344 11.296875 22.070313 10.585938 22.875 9.96875 C 23.664063 9.339844 24.492188 8.8125 25.253906 8.453125 C 25.625 8.261719 26.019531 8.152344 26.335938 8.042969 C 26.6875 7.96875 26.988281 7.929688 27.230469 7.90625 C 27.746094 7.949219 28 8 28 8 C 28 8 27.730469 8.125 27.332031 8.292969 C 27.136719 8.414063 26.914063 8.582031 26.664063 8.734375 C 26.429688 8.949219 26.164063 9.152344 25.886719 9.410156 C 25.613281 9.6875 25.320313 9.957031 25.011719 10.277344 C 24.707031 10.597656 24.382813 10.933594 24.050781 11.277344 C 23.707031 11.613281 23.378906 12.011719 23.007813 12.363281 C 22.644531 12.738281 22.269531 13.097656 21.882813 13.46875 C 21.488281 13.828125 21.097656 14.191406 20.679688 14.527344 C 20.285156 14.875 19.835938 15.171875 19.425781 15.476563 C 19.007813 15.777344 18.5625 16.023438 18.148438 16.257813 C 17.707031 16.46875 17.316406 16.683594 16.894531 16.796875 C 16.484375 16.929688 16.125 17.050781 15.75 17.074219 C 15.390625 17.113281 15.089844 17.171875 14.859375 17.117188 C 14.386719 17.054688 14.117188 17 14.117188 17 Z "/>
<path style=" fill:#BBDEFB;" d="M 14.941406 46 C 14.941406 46 18.070313 43 23 43 C 27.929688 43 31.0625 46 31.0625 46 Z "/>
<path style=" fill:#BBDEFB;" d="M 12 12 C 12 35.921875 19.085938 38 22 43 L 24 43 C 27.085938 38.167969 34 35.921875 34 12 Z "/>
<path style=" fill:#FF80AB;" d="M 21.515625 39.03125 C 22.320313 39.976563 23.769531 39.980469 24.585938 39.050781 C 24.589844 39.046875 24.597656 39.039063 24.601563 39.03125 C 27.609375 35.609375 31.6875 30.96875 31.984375 14 L 32 12 L 14 12 L 14.015625 14 C 14.3125 30.632813 18.328125 35.316406 21.289063 38.773438 C 21.367188 38.859375 21.441406 38.945313 21.515625 39.03125 Z "/>
<path style=" fill:#FFCDD2;" d="M 19 14 L 16.019531 14 C 16.304688 29.882813 20.066406 34.269531 22.808594 37.472656 L 23.035156 37.734375 L 23.035156 37.730469 L 23.058594 37.730469 C 20.8125 34.25 19.253906 27.996094 19 14 Z "/>
<path style=" fill:#FFD54F;" d="M 14.019531 14 C 14.035156 15.046875 14.070313 16.046875 14.117188 17 L 31.886719 17 C 31.933594 16.046875 31.964844 15.046875 31.984375 14 L 32 12 L 14 12 Z "/>
<path style=" fill:#FFFFFF;" d="M 19 14 L 19 12 L 16 12 L 16.019531 14 C 16.035156 15.050781 16.070313 16.046875 16.121094 17 L 19.082031 17 C 19.046875 16.035156 19.019531 15.046875 19 14 Z "/>
</g>
</svg>